<?xml version="1.0" encoding="UTF-8"?>
<svg id="Layer_1" data-name="Layer 1" xmlns="http://www.w3.org/2000/svg" viewBox="0 0 135.79 38.1">
  <path d="M74.83,8.98h-2.35v11.78h7.22v-2.12h-4.88v-9.66ZM81.79,20.75h2.34v-11.78h-2.34v11.78ZM63.88,8.98l-5.12,11.78h2.62l1.04-2.63h4.77l1.07,2.63h2.66l-5.07-11.78h-1.97ZM63.23,16.08l1.58-4.09,1.55,4.09h-3.13ZM57.35,8.98l-3.12,8.63-3.09-8.63h-2.61l4.66,11.78h1.97l4.72-11.78h-2.53ZM90.82,8.98l-5.12,11.78h2.62l1.04-2.63h4.77l1.07,2.63h2.67l-5.07-11.78h-1.96ZM90.17,16.08l1.58-4.09,1.55,4.09h-3.13ZM124.57,15.75c-.22-.39-.51-.73-.85-.99-.34-.25-.72-.46-1.12-.62-.39-.15-.78-.29-1.15-.41-.32-.1-.62-.19-.88-.29-.26-.09-.48-.2-.65-.32-.17-.12-.31-.26-.4-.42-.09-.16-.14-.36-.14-.59,0-.25.05-.47.16-.64.11-.18.26-.33.43-.44.18-.11.38-.2.6-.26.6-.15,1.21-.1,1.8.18.37.18.66.4.86.66l.11.14,1.55-1.7-.11-.1c-.46-.42-1-.74-1.62-.96-1.16-.4-2.3-.4-3.39-.11-.52.14-.99.35-1.39.64-.41.29-.75.66-1,1.09-.25.44-.38.98-.38,1.58,0,.56.09,1.04.27,1.42.18.38.42.7.71.96.29.26.61.47.97.63.35.15.7.29,1.05.39l1.02.34c.31.1.58.23.81.37.22.13.4.29.52.48.12.17.18.4.18.67,0,.28-.06.52-.17.71-.11.19-.26.35-.44.48-.18.13-.39.22-.62.28-.68.16-1.33.09-2.01-.24-.45-.22-.81-.51-1.07-.88l-.1-.14-1.69,1.58.09.11c.47.56,1.08.98,1.81,1.27.73.28,1.48.42,2.24.42.57,0,1.13-.08,1.65-.23.52-.16.99-.39,1.38-.71.39-.31.71-.72.95-1.19.24-.48.36-1.04.36-1.68,0-.58-.11-1.08-.34-1.48M112.29,20.75h2.34v-11.78h-2.34v11.78ZM108.02,10.26c-.62-.46-1.32-.79-2.09-.99-.77-.2-1.54-.3-2.29-.3h-4.22v11.78h4.22c.76,0,1.53-.11,2.29-.34.77-.23,1.47-.58,2.09-1.05.62-.48,1.13-1.09,1.52-1.83.39-.74.58-1.64.58-2.66,0-1.1-.2-2.04-.58-2.79-.39-.75-.9-1.36-1.52-1.82M107.25,16.72c-.26.48-.59.87-1,1.15-.41.29-.87.49-1.38.61-.52.12-1.04.18-1.55.18h-1.55v-7.64h1.55c.52,0,1.04.05,1.56.16.51.1.97.3,1.38.58.4.28.74.67,1,1.16.26.49.39,1.15.39,1.94,0,.75-.13,1.37-.39,1.86" style="fill: #fff;"/>
  <polygon points="59.1 25.48 59.74 25.48 59.74 26.85 61.44 26.85 61.44 25.48 62.08 25.48 62.08 28.89 61.44 28.89 61.44 27.42 59.74 27.42 59.74 28.89 59.1 28.89 59.1 25.48" style="fill: #f37920;"/>
  <polygon points="63.56 25.48 65.77 25.48 65.77 26.05 64.21 26.05 64.21 26.85 65.36 26.85 65.36 27.42 64.21 27.42 64.21 28.31 65.89 28.31 65.89 28.89 63.56 28.89 63.56 25.48" style="fill: #f37920;"/>
  <polygon points="67.23 25.48 67.88 25.48 67.88 28.32 69.56 28.32 69.56 28.89 67.23 28.89 67.23 25.48" style="fill: #f37920;"/>
  <polygon points="70.83 25.48 71.47 25.48 71.47 28.32 73.16 28.32 73.16 28.89 70.83 28.89 70.83 25.48" style="fill: #f37920;"/>
  <polygon points="74.42 25.48 76.63 25.48 76.63 26.05 75.07 26.05 75.07 26.85 76.22 26.85 76.22 27.42 75.07 27.42 75.07 28.31 76.75 28.31 76.75 28.89 74.42 28.89 74.42 25.48" style="fill: #f37920;"/>
  <polygon points="78.1 25.48 78.74 25.48 80.4 27.9 80.4 25.48 81.03 25.48 81.03 28.89 80.39 28.89 78.72 26.44 78.72 28.89 78.1 28.89 78.1 25.48" style="fill: #f37920;"/>
  <rect x="82.51" y="25.48" width=".65" height="3.41" style="fill: #f37920;"/>
  <path d="M87.64,28.27c-.05.08-.12.16-.21.24s-.2.16-.32.23c-.12.07-.26.13-.4.17-.15.04-.3.07-.47.07-.25,0-.49-.04-.7-.13-.21-.09-.39-.21-.55-.37-.15-.16-.27-.34-.36-.56-.09-.22-.13-.45-.13-.71s.04-.48.13-.7c.09-.22.21-.41.36-.57.16-.16.34-.29.56-.39.21-.09.45-.14.71-.14.17,0,.32.02.46.05.14.04.27.08.38.15.11.06.22.13.3.22.09.08.17.17.24.27l-.46.4c-.11-.16-.23-.28-.38-.38-.14-.09-.33-.14-.54-.14-.17,0-.32.03-.45.1-.13.07-.25.16-.34.27-.09.11-.17.24-.22.39-.05.15-.07.3-.07.47s.02.32.07.46c.05.14.12.27.21.37.09.11.2.19.33.25.13.06.27.09.43.09.15,0,.27-.02.38-.05.1-.03.19-.08.27-.13.07-.05.13-.1.18-.16.05-.06.09-.11.14-.15l.45.39Z" style="fill: #f37920;"/>
  <polygon points="90.7 25.48 91.29 25.48 92.24 27.09 93.17 25.48 93.77 25.48 93.93 28.89 93.3 28.89 93.19 26.53 92.37 27.92 92.07 27.92 91.25 26.56 91.14 28.89 90.53 28.89 90.7 25.48" style="fill: #f37920;"/>
  <path d="M97.02,28.98c-.25,0-.48-.05-.7-.14-.22-.09-.4-.22-.56-.39-.16-.16-.29-.36-.38-.57-.09-.22-.14-.45-.14-.7s.05-.48.14-.7c.09-.22.22-.41.38-.57.16-.16.35-.29.56-.38.22-.09.45-.14.7-.14s.48.05.7.14c.21.09.4.22.56.38.16.16.29.35.38.57.09.22.14.45.14.7s-.05.48-.14.7c-.09.22-.22.41-.38.57-.16.16-.35.29-.56.39-.22.09-.45.14-.7.14M97.02,28.37c.17,0,.32-.03.46-.1.14-.06.25-.15.35-.26.1-.11.17-.24.22-.39.05-.15.08-.3.08-.46s-.03-.32-.08-.46c-.05-.14-.13-.27-.22-.38-.1-.11-.21-.19-.35-.26-.14-.06-.29-.09-.46-.09s-.32.03-.46.09c-.13.06-.25.15-.34.26-.1.11-.17.24-.22.38-.05.15-.08.3-.08.46s.03.31.08.46c.05.15.12.28.22.39.09.11.21.2.34.26.13.07.29.1.46.1" style="fill: #f37920;"/>
  <polygon points="100.78 26.05 99.62 26.05 99.62 25.48 102.58 25.48 102.58 26.05 101.42 26.05 101.42 28.89 100.78 28.89 100.78 26.05" style="fill: #f37920;"/>
  <path d="M105.18,28.98c-.25,0-.48-.05-.7-.14-.22-.09-.4-.22-.56-.39-.16-.16-.29-.36-.38-.57-.09-.22-.14-.45-.14-.7s.05-.48.14-.7c.09-.22.22-.41.38-.57.16-.16.35-.29.56-.38.22-.09.45-.14.7-.14s.48.05.7.14c.22.09.4.22.56.38.16.16.29.35.38.57.09.22.14.45.14.7s-.05.48-.14.7c-.09.22-.22.41-.38.57-.16.16-.35.29-.56.39-.22.09-.45.14-.7.14M105.18,28.37c.17,0,.32-.03.45-.1.14-.06.25-.15.35-.26.09-.11.17-.24.22-.39.05-.15.08-.3.08-.46s-.03-.32-.08-.46c-.05-.14-.12-.27-.22-.38-.1-.11-.21-.19-.35-.26-.14-.06-.29-.09-.45-.09s-.32.03-.46.09c-.13.06-.25.15-.34.26-.1.11-.17.24-.22.38-.05.15-.08.3-.08.46s.03.31.08.46.12.28.22.39c.09.11.21.2.34.26.14.07.29.1.46.1" style="fill: #f37920;"/>
  <path d="M108.3,25.48h1.13c.21,0,.4.03.55.1.15.06.27.15.36.25.09.1.16.21.2.33.04.12.06.23.06.34,0,.22-.05.4-.14.57-.09.17-.24.3-.43.4l.79,1.43h-.73l-.69-1.35h-.49v1.35h-.62v-3.41ZM109.44,27.01c.16,0,.29-.05.38-.14.09-.1.14-.21.14-.35,0-.15-.05-.27-.14-.36-.1-.09-.22-.14-.37-.14h-.52v.99h.52Z" style="fill: #f37920;"/>
  <path d="M112.24,27.93s.09.1.15.15c.06.05.12.1.19.15.07.05.15.08.24.11.09.03.18.05.29.05.2,0,.35-.05.45-.14.1-.09.15-.2.15-.33,0-.07-.01-.14-.04-.19-.03-.06-.07-.11-.14-.15-.07-.04-.15-.08-.25-.12-.1-.03-.23-.07-.39-.1-.16-.03-.29-.08-.41-.14-.11-.07-.21-.14-.28-.23-.08-.09-.13-.19-.17-.29-.04-.11-.06-.22-.06-.33,0-.13.02-.25.07-.37.05-.12.12-.22.22-.31.1-.09.22-.16.37-.22.15-.05.32-.08.52-.08.18,0,.34.02.47.06.13.04.24.09.33.14.09.06.15.11.2.16.05.05.08.09.1.12l-.42.4s-.04-.04-.08-.08c-.04-.04-.08-.07-.14-.11-.06-.03-.12-.06-.2-.09-.08-.03-.17-.04-.27-.04-.09,0-.17.01-.23.04-.07.02-.12.05-.16.09-.04.04-.07.08-.09.13-.02.05-.03.09-.03.13,0,.06.01.11.03.16.02.05.06.09.11.13.05.04.13.08.22.11.09.03.21.06.35.09.13.03.26.07.38.12.12.05.23.13.32.21.09.09.17.19.22.32.06.12.08.27.08.45,0,.15-.03.29-.09.41-.06.13-.15.24-.26.33-.11.1-.24.17-.39.22-.15.05-.31.08-.49.08s-.32-.02-.46-.06c-.14-.04-.26-.09-.37-.16-.11-.06-.21-.13-.29-.21-.08-.07-.15-.15-.2-.22l.45-.41Z" style="fill: #f37920;"/>
  <path d="M16.42,27.87c-.32,0-.62-.17-.78-.45-1.4-2.41-2.22-5.1-2.4-7.88h0-4.54v-2.42h3.15v.62h1.36c.11-2.93.94-5.8,2.42-8.33.16-.28.46-.45.78-.45h.84v18.91h-.84Z" style="fill: #f37920;"/>
  <path d="M34.83,27.87V8.96h3.15c2.49,0,4.5,2.02,4.5,4.5v9.91c0,2.49-2.02,4.5-4.5,4.5h-3.15Z" style="fill: #f37920;"/>
  <polygon points="33.51 8.96 18.58 8.96 18.19 9.82 33.9 9.82 33.51 8.96" style="fill: #f37920;"/>
  <polygon points="33.51 10.34 18.58 10.34 18.19 11.19 33.9 11.19 33.51 10.34" style="fill: #f37920;"/>
  <polygon points="33.51 11.77 18.58 11.77 18.19 12.62 33.9 12.62 33.51 11.77" style="fill: #f37920;"/>
  <polygon points="33.51 13.25 18.58 13.25 18.19 14.1 33.9 14.1 33.51 13.25" style="fill: #f37920;"/>
  <path d="M33.9,9.82h-15.71l.39-.86h6.19c.25,0,.45-.2.45-.45,0-.14-.06-.27-.17-.35-.37-.3-.58-.75-.58-1.23,0-.87.71-1.58,1.58-1.58s1.58.71,1.58,1.58c0,.48-.22.93-.59,1.23-.11.09-.17.22-.17.35,0,.25.2.45.45.45h6.19l.39.86ZM26.72,6.94c0-.37-.3-.68-.68-.68s-.68.3-.68.68.3.68.68.68.68-.3.68-.68" style="fill: #f37920;"/>
  <path d="M29.76,17.61v4.26l-.15.34h4.29v-5.92h-15.71v5.92h4.29l-.15-.34v-4.26c0-.05.04-.09.09-.09h7.25" style="fill: #f37920;"/>
  <path d="M23.44,24.29l-.24-.51-.41-.86h-4.6l.39.86h3.89l-.15.51h-4.13l.39.86h3.5l-.15.51h-3.74l.39.86h3.11l-.13.45v-.03c-.01.05-.06.09-.11.09h-3.03c-.12,0-.22.1-.22.23v1.6h3.6s.36-.74.36-.74c.04-.08.12-.12.2-.12h7.38c.09,0,.16.05.2.12l.39.74h3.57v-1.6c0-.12-.1-.22-.22-.22h-3.03c-.05,0-.1-.04-.11-.09l-.12-.42h3.1l.39-.86h-3.74l-.15-.51h3.49l.39-.86h-4.13l-.15-.51h3.89l.39-.86h-4.6l-.41.86-.24.51-.41.86-.17.36h-4.05l-.17-.36-.41-.86Z" style="fill: #f37920;"/>
  <polygon points="33.51 14.68 18.58 14.68 18.19 15.53 33.9 15.53 33.51 14.68" style="fill: #f37920;"/>
  <rect x=".43" y="-.45" width="134.92" height="38.55" style="fill: none;"/>
</svg>